<svg width="41" height="41" viewBox="0 0 41 41" fill="none" xmlns="http://www.w3.org/2000/svg">
<g clip-path="url(#clip0_1727_15)">
<path d="M35.1558 16.6991V29.5822L20.8261 37.854L6.48845 29.5822V13.0308L20.8261 4.75109L31.8391 11.1127L33.5014 10.1537L20.8261 2.83301L4.82611 12.0718V30.5413L20.8261 39.78L36.8261 30.5413V15.7401L35.1558 16.6991Z" fill="#1C1C1C" stroke="#1C1C1C"/>
<path d="M16.3141 23.9958V29.0902H14.9165V22.0503H22.4085V22.0503L22.4141 22.0503C23.3016 22.0404 24.1496 21.6815 24.7745 21.0513C25.3991 20.4215 25.7507 19.5714 25.7537 18.6846C25.7585 18.2433 25.6731 17.8057 25.5028 17.3984C25.3332 16.993 25.0829 16.6263 24.7672 16.3206C24.4608 16.0072 24.0945 15.7587 23.6902 15.5895C23.2839 15.4196 22.8474 15.3333 22.4069 15.336H14.9165V13.8904H22.415C23.6835 13.8984 24.8978 14.4058 25.7947 15.3028L25.7948 15.3028C26.6921 16.2002 27.1996 17.415 27.2072 18.6841L27.2072 18.6851C27.215 19.6529 26.9198 20.5988 26.3632 21.3905L26.3631 21.3905L26.3581 21.3979C25.8491 22.1504 25.1335 22.7395 24.2977 23.0945C23.4293 23.3674 22.5235 23.5028 21.6132 23.4958V23.4958H21.6093H16.8141H16.3141V23.9958Z" fill="#1C1C1C" stroke="#1C1C1C"/>
<path d="M27.6513 29.3904H24.8541L22.6962 25.6262C23.5499 25.574 24.392 25.4018 25.1977 25.1147L27.6513 29.3904Z" fill="#1C1C1C"/>
<path d="M33.4854 14.0217L35.1398 14.9408L36.7941 14.0217V12.0796L35.1398 11.1206L33.4854 12.0796V14.0217Z" fill="#1C1C1C"/>
</g>
<defs>
<clipPath id="clip0_1727_15">
<rect width="40" height="40" fill="white" transform="translate(0.826111 0.833008)"/>
</clipPath>
</defs>
</svg>
