<svg width="32" height="39" viewBox="0 0 32 39" fill="none" xmlns="http://www.w3.org/2000/svg">
<g clip-path="url(#clip0_1197_2275)">
<path fill-rule="evenodd" clip-rule="evenodd" d="M19.3615 13.9806C20.5087 13.4086 21.9684 12.5665 23.4298 11.4128C23.738 12.0527 23.7717 12.6111 23.613 13.0621C23.5005 13.3798 23.2884 13.6562 23.0097 13.8761C22.7078 14.1137 22.3308 14.2867 21.914 14.3803C21.1232 14.5584 20.1999 14.4544 19.3615 13.9806ZM19.5604 19.8417L21.0789 20.7189C17.9783 22.4567 17.1353 25.6837 16.134 28.8267C15.1328 25.6837 14.2898 22.4567 11.1892 20.7189L12.7078 19.8417C12.8547 19.7862 12.9803 19.6856 13.0665 19.5543C13.1528 19.4231 13.1952 19.2679 13.1879 19.111C13.0487 16.1675 13.8435 14.8658 14.9156 14.0485C15.3001 13.7557 15.7199 13.6087 16.134 13.6087C16.5482 13.6087 16.968 13.7557 17.3526 14.0485C18.4247 14.8658 19.2195 16.1675 19.0803 19.111C19.073 19.2679 19.1154 19.4231 19.2017 19.5543C19.2879 19.6856 19.4135 19.7862 19.5604 19.8417ZM16.134 0.621582C17.8894 0.66871 19.6491 1.00948 21.1763 1.67239C22.2339 2.13204 23.2207 2.7392 24.1142 3.46525C24.5178 3.79302 24.85 4.10966 25.2161 4.47418C26.2032 4.50831 27.6459 3.41162 28.3157 2.38543C27.163 6.1644 21.903 10.627 18.2614 12.3346C18.2599 12.334 18.2589 12.3331 18.2578 12.3324C17.6042 11.8334 16.8692 11.5838 16.134 11.5838C15.3989 11.5838 14.6639 11.8334 14.0104 12.3324C14.0093 12.333 14.0083 12.3341 14.0068 12.3346C10.3651 10.627 5.10515 6.1644 3.95245 2.38543C4.62212 3.41162 6.06483 4.50831 7.05201 4.47418C7.41815 4.10978 7.75042 3.79302 8.15382 3.46525C9.04737 2.7392 10.0342 2.13204 11.0917 1.67239C12.6191 1.00948 14.3788 0.66871 16.134 0.621582ZM12.9066 13.9806C11.7595 13.4086 10.2997 12.5665 8.83836 11.4128C8.53022 12.0527 8.49647 12.6111 8.6551 13.0621C8.76773 13.3798 8.97974 13.6562 9.25839 13.8761C9.5604 14.1137 9.93742 14.2867 10.3542 14.3803C11.145 14.5584 12.0682 14.4544 12.9066 13.9806Z" fill="#1C1C1C"/>
<path fill-rule="evenodd" clip-rule="evenodd" d="M25.0294 10.0013C25.834 9.18937 26.5429 8.29069 27.1129 7.48877L27.4024 8.03368C28.3345 9.89841 28.8188 11.7556 28.8188 13.8458L28.8168 17.1625L28.8343 18.8818C28.9018 23.1028 29.8151 27.3734 31.884 31.2816L27.5553 27.7912L24.4925 32.7614L21.2748 29.7323L16.133 38.0764L10.9913 29.7324L7.77369 32.7615L4.71089 27.7913L0.382141 31.2818C2.45101 27.3735 3.36431 23.1029 3.43194 18.8819L3.44944 17.1626L3.44744 13.8459C3.44744 11.7556 3.9316 9.89841 4.8639 8.0338L5.15329 7.48889C5.72332 8.29082 6.43212 9.18937 7.23679 10.0014L6.98552 10.5233C6.49737 11.537 6.33573 12.6704 6.71601 13.7484C6.96115 14.4427 7.40855 15.0381 7.98533 15.4926C8.54536 15.934 9.20815 16.2315 9.90207 16.3878C10.3541 16.4895 10.8146 16.5314 11.2721 16.5172C11.1654 17.1223 11.1188 17.75 11.1158 18.3895L7.03253 20.7479L10.1835 22.5141C10.4353 22.6553 10.675 22.8171 10.9002 22.9978C13.498 25.3302 15.0599 32.2302 16.1332 35.6005C17.2066 32.2302 18.7683 25.3302 21.3662 22.9978C21.5914 22.8171 21.8312 22.6553 22.083 22.5141L25.2339 20.7479L21.1506 18.3895C21.1476 17.75 21.101 17.1223 20.9942 16.5172C21.4517 16.5314 21.9123 16.4895 22.3643 16.3878C23.0582 16.2315 23.7211 15.934 24.281 15.4926C24.8577 15.0381 25.3052 14.4427 25.5502 13.7484C25.9306 12.6704 25.7689 11.5371 25.2808 10.5233L25.0296 10.0014L25.0294 10.0013Z" fill="#1C1C1C"/>
</g>
<defs>
<clipPath id="clip0_1197_2275">
<rect width="31.5018" height="37.5022" fill="white" transform="translate(0.382141 0.621582)"/>
</clipPath>
</defs>
</svg>
