<svg width="40" height="40" viewBox="0 0 40 40" fill="none" xmlns="http://www.w3.org/2000/svg">
<path fill-rule="evenodd" clip-rule="evenodd" d="M16.8884 0.338012C14.1754 0.76525 11.1448 1.96987 8.70816 3.58967C7.17629 4.60812 4.87228 6.85933 3.7937 8.3919C-1.56233 16.0014 -0.857495 26.4413 5.46314 33.1185C8.24893 36.0615 10.7251 37.5743 14.5907 38.6945C23.5751 41.2981 33.3965 36.8357 37.4873 28.2913C42.239 18.3666 38.0806 6.71267 28.1024 1.9898C25.5764 0.794268 23.4856 0.315636 20.4572 0.239069C19.0631 0.203932 17.4571 0.248509 16.8884 0.338012ZM17.3106 1.76027C15.5906 1.9704 12.4489 3.04478 10.8062 3.98474C7.19377 6.05153 4.17776 9.60561 2.79623 13.4233C1.90224 15.8943 1.69737 17.1132 1.70576 19.9102C1.71223 22.0485 1.7839 22.7184 2.16376 24.1931C2.62019 25.9646 4.45903 29.9436 4.81162 29.9225C5.07297 29.9067 5.90454 27.434 6.2907 25.5244C6.47757 24.5998 6.7529 22.4668 6.90236 20.7842C7.052 19.1017 7.26072 17.2924 7.36649 16.7636C7.87186 14.2351 9.39604 12.4063 12.0752 11.1135C14.461 9.9624 15.6069 9.70735 17.7476 9.85087C18.7091 9.91538 20.2824 9.95838 21.2439 9.94649C22.8666 9.92656 23.0435 9.95873 23.7111 10.3963C24.1067 10.6554 24.5597 11.0861 24.7175 11.3532C25.0287 11.8803 26.1837 12.3832 29.514 13.442C33.8131 14.8089 35.3063 16.9889 33.8246 19.7354C33.5392 20.2642 33.2271 20.6858 33.131 20.6724C33.0348 20.6589 32.7595 20.7865 32.5192 20.9559C31.701 21.5324 30.3373 22.1401 28.5859 22.7086C27.1121 23.1868 26.4932 23.2896 24.642 23.3632C22.5125 23.4478 21.9066 23.3645 20.2824 22.7642C20.1382 22.7108 20.2945 22.8753 20.6297 23.1299C22.0134 24.1794 24.1099 24.3651 26.8201 23.6775C28.5803 23.2309 31.4699 21.9667 32.4651 21.2076C33.6241 20.3236 32.9842 21.0854 30.1861 23.9202C26.8803 27.2694 25.49 29.0652 24.3001 31.5236C23.2355 33.7227 22.6324 36.4784 23.0037 37.4462C23.0907 37.6731 23.2337 37.6739 24.1815 37.4528C27.2152 36.745 30.101 35.0974 32.5428 32.6789C34.9981 30.2469 36.3339 28.0274 37.3567 24.6797C37.7906 23.2594 37.8268 22.9014 37.838 19.9102C37.849 17.044 37.804 16.5071 37.4438 15.1903C35.7588 9.03241 30.9537 4.09452 24.9572 2.35848C22.3394 1.6005 20.0716 1.42306 17.3106 1.76027ZM15.5462 12.2758C14.4558 12.8517 13.7644 14.0103 13.7644 15.2623C13.7644 18.4402 17.4529 19.9887 19.6912 17.7504C21.0323 16.4094 21.1419 14.6917 19.9859 13.1347C19.0442 11.8663 17.0517 11.4808 15.5462 12.2758ZM15.9644 13.2604C14.3579 14.2398 14.528 16.7685 16.2528 17.5462C17.5538 18.1329 18.8514 17.6263 19.4367 16.3031C20.3981 14.1297 17.9938 12.0229 15.9644 13.2604ZM29.2845 18.3376C28.6408 19.0489 29.7075 20.0298 30.3865 19.3508C30.6768 19.0604 30.6487 18.5891 30.3216 18.2619C29.9543 17.8948 29.6662 17.9159 29.2845 18.3376Z" fill="black"/>
</svg>
