<svg version="1.2" xmlns="http://www.w3.org/2000/svg" viewBox="0 0 35 29" width="35" height="29">
	<title>telegram-svg</title>
	<style>
		.s0 { fill: #000000 } 
	</style>
	<path id="Layer" class="s0" d="m2.6 12.9c0 0 15.3-6.3 20.6-8.5 2.1-0.8 9-3.7 9-3.7 0 0 3.2-1.3 2.9 1.7-0.2 1.3-0.8 5.5-1.5 10.2-1.1 6.7-2.2 14-2.2 14 0 0-0.3 2-1.7 2.4-1.5 0.3-4.1-1.3-4.4-1.6-0.4-0.3-6.7-4.3-9-6.2-0.6-0.6-1.4-1.7 0.1-2.9 3.2-2.9 7-6.6 9.3-8.9 1.1-1 2.1-3.5-2.3-0.5-6.3 4.3-12.4 8.3-12.4 8.3 0 0-1.4 1-4 0.2-2.6-0.8-5.7-1.9-5.7-1.9 0 0-2.2-1.2 1.3-2.6z"/>
</svg>